<svg version="1.2" baseProfile="tiny-ps" xmlns="http://www.w3.org/2000/svg" viewBox="0 0 28 28" width="28" height="28">
	<title>image24-svg</title>
	<style>
		tspan { white-space:pre }
		.shp0 { fill: #2b2b33 } 
		.shp1 { fill: #f6f6f6 } 
	</style>
	<path id="Layer" class="shp0" d="M6.83 0L20.48 0C24.23 0 27.31 3.07 27.31 6.83L27.31 20.48C27.31 24.23 24.24 27.31 20.48 27.31L6.83 27.31C3.07 27.31 0 24.23 0 20.48L0 6.83C0 3.07 3.07 0 6.83 0Z" />
	<path id="Layer" fill-rule="evenodd" class="shp1" d="M23.65 7.27L23.67 16.23C23.67 16.97 22.97 17.58 22.11 17.58L15.89 17.59L16.41 18.93L18.74 18.93C19.17 18.93 19.52 19.23 19.52 19.6C19.52 19.97 19.18 20.27 18.74 20.27L9.93 20.28C9.5 20.28 9.15 19.98 9.15 19.61C9.15 19.24 9.5 18.94 9.93 18.94L12.26 18.94L12.78 17.59L6.56 17.6C5.7 17.6 5 17 5 16.26L4.99 7.29C4.99 6.55 5.68 5.95 6.54 5.94L22.1 5.93C22.96 5.92 23.65 6.53 23.65 7.27ZM21.58 7.72L7.06 7.74L7.07 15.8L21.59 15.79L21.58 7.72Z" />
</svg>