<svg version="1.2" baseProfile="tiny-ps" xmlns="http://www.w3.org/2000/svg" viewBox="0 0 28 28" width="28" height="28">
	<title>image24-svg</title>
	<style>
		tspan { white-space:pre }
		.shp0 { fill: #2b2b33 } 
		.shp1 { fill: #f6f6f6 } 
	</style>
	<path id="Layer" class="shp0" d="M6.83 0L20.48 0C24.23 0 27.31 3.07 27.31 6.83L27.31 20.48C27.31 24.23 24.24 27.31 20.48 27.31L6.83 27.31C3.07 27.31 0 24.23 0 20.48L0 6.83C0 3.07 3.07 0 6.83 0Z" />
	<path id="Layer" fill-rule="evenodd" class="shp1" d="M24 17.66L24 18.12C24 19.16 23.06 20 21.9 20L5.1 20C3.95 20 3 19.16 3 18.12L3 17.66C3 17.4 3.24 17.19 3.53 17.19L11.37 17.19C11.37 17.61 11.84 18.12 12.45 18.12L14.45 18.12C15.04 18.12 15.5 17.77 15.52 17.19L23.48 17.19C23.76 17.19 24 17.4 24 17.66ZM21.9 16.25L5.1 16.25L5.1 6.41C5.1 5.63 5.81 5 6.68 5L20.33 5C21.19 5 21.9 5.63 21.9 6.41L21.9 16.25ZM19.8 6.87L7.2 6.87L7.2 14.37L19.8 14.37L19.8 6.87Z" />
</svg>